<svg xmlns="http://www.w3.org/2000/svg" xmlns:xlink="http://www.w3.org/1999/xlink" xmlns:xodm="http://www.corel.com/coreldraw/odm/2003" xml:space="preserve" version="1.1" style="shape-rendering:geometricPrecision; text-rendering:geometricPrecision; image-rendering:optimizeQuality; fill-rule:evenodd; clip-rule:evenodd" viewBox="2982.44 9542.97 22199.39 6922.57">
 <defs>
  <style type="text/css">
   <![CDATA[
    .fil3 {fill:none}
    .fil4 {fill:#BB2D28}
    .fil1 {fill:#E31E24}
    .fil2 {fill:#E74B23;fill-rule:nonzero}
    .fil0 {fill:#BB2D28;fill-rule:nonzero}
   ]]>
  </style>
    <clipPath id="id0">
     <path d="M5609.98 15041.1l1861.03 0 0 -3690.7 2504.7 0 0 -1466.94 -6870.43 0 0 1466.94 2504.7 0 0 3690.7z"/>
    </clipPath>
      <mask id="id1">
  <linearGradient id="id2" gradientUnits="userSpaceOnUse" x1="6639.7" y1="12143.94" x2="6639.79" y2="15258.1">
   <stop offset="0" style="stop-opacity:1; stop-color:white"/>
   <stop offset="1" style="stop-opacity:0; stop-color:white"/>
  </linearGradient>
       <rect style="fill:url(#id2)" x="5778.98" y="10024.28" width="4319.57" height="5139.66"/>
      </mask>
      <mask id="id3">
  <linearGradient id="id4" gradientUnits="userSpaceOnUse" x1="6635.13" y1="12141.83" x2="6635.23" y2="15258.17">
   <stop offset="0" style="stop-opacity:1; stop-color:white"/>
   <stop offset="1" style="stop-opacity:0; stop-color:white"/>
  </linearGradient>
       <rect style="fill:url(#id4)" x="6271.74" y="10411.07" width="3826.81" height="4752.87"/>
      </mask>
      <mask id="id5">
  <linearGradient id="id6" gradientUnits="userSpaceOnUse" x1="6629.21" y1="12139.34" x2="6629.31" y2="15258.24">
   <stop offset="0" style="stop-opacity:1; stop-color:white"/>
   <stop offset="1" style="stop-opacity:0; stop-color:white"/>
  </linearGradient>
       <rect style="fill:url(#id6)" x="6764.49" y="10797.86" width="3334.06" height="4366.08"/>
      </mask>
      <mask id="id7">
  <linearGradient id="id8" gradientUnits="userSpaceOnUse" x1="6621.19" y1="12136.44" x2="6621.29" y2="15258.33">
   <stop offset="0" style="stop-opacity:1; stop-color:white"/>
   <stop offset="1" style="stop-opacity:0; stop-color:white"/>
  </linearGradient>
       <rect style="fill:url(#id8)" x="7257.25" y="11182.76" width="2841.3" height="3981.18"/>
      </mask>
       <mask id="id9">
  <linearGradient id="id10" gradientUnits="userSpaceOnUse" x1="6474.13" y1="13544.61" x2="6473.86" y2="18715.99">
   <stop offset="0" style="stop-opacity:1; stop-color:white"/>
   <stop offset="1" style="stop-opacity:0; stop-color:white"/>
  </linearGradient>
        <rect style="fill:url(#id10)" x="3033.88" y="10024.7" width="3242.78" height="199.62"/>
       </mask>
       <mask id="id11">
  <linearGradient id="id12" gradientUnits="userSpaceOnUse" x1="6471.89" y1="14862.29" x2="6471.23" y2="22876.23">
   <stop offset="0" style="stop-opacity:1; stop-color:white"/>
   <stop offset="1" style="stop-opacity:0; stop-color:white"/>
  </linearGradient>
        <rect style="fill:url(#id12)" x="3033.88" y="10411.48" width="2926.05" height="133.63"/>
       </mask>
       <mask id="id13">
  <linearGradient id="id14" gradientUnits="userSpaceOnUse" x1="6469.99" y1="18764.57" x2="6466.47" y2="37286.05">
   <stop offset="0" style="stop-opacity:1; stop-color:white"/>
   <stop offset="1" style="stop-opacity:0; stop-color:white"/>
  </linearGradient>
        <rect style="fill:url(#id14)" x="3033.88" y="10798.29" width="2695.45" height="99.98"/>
       </mask>
       <mask id="id15">
  <linearGradient id="id16" gradientUnits="userSpaceOnUse" x1="6568.82" y1="55820.5" x2="6348.76" y2="201955.42">
   <stop offset="0" style="stop-opacity:1; stop-color:white"/>
   <stop offset="1" style="stop-opacity:0; stop-color:white"/>
  </linearGradient>
        <rect style="fill:url(#id16)" x="3033.88" y="11183.36" width="2521.85" height="88.38"/>
       </mask>
      <mask id="id17">
  <linearGradient id="id18" gradientUnits="userSpaceOnUse" x1="6253.59" y1="10340.01" x2="4514.99" y2="10339.92">
   <stop offset="0" style="stop-opacity:1; stop-color:white"/>
   <stop offset="1" style="stop-opacity:0; stop-color:white"/>
  </linearGradient>
       <rect style="fill:url(#id18)" x="3139.51" y="9742.99" width="4470.07" height="1747.9"/>
      </mask>
    <clipPath id="id19">
     <path d="M17923.16 9883.46l0 5157.64 4687.26 0c1429.44,19.41 2448.48,-1196.37 2448.48,-2578.87 0,-1386.3 -1015.4,-2598.23 -2450.16,-2578.77l-4685.58 0zm4291.56 1466.94c635.73,0 979.16,520.87 979.16,1111.83 0,589.27 -345.23,1111.93 -979.16,1111.93l-2430.52 0 0 -2223.76 2430.52 0z"/>
    </clipPath>
      <mask id="id20">
  <linearGradient id="id21" gradientUnits="userSpaceOnUse" x1="18713.61" y1="13791.2" x2="18713.71" y2="11399.07">
   <stop offset="0" style="stop-opacity:1; stop-color:white"/>
   <stop offset="1" style="stop-opacity:0; stop-color:white"/>
  </linearGradient>
       <rect style="fill:url(#id21)" x="17390.55" y="9542.97" width="2438.11" height="6091.34"/>
      </mask>
    <mask id="id22">
  <linearGradient id="id23" gradientUnits="userSpaceOnUse" x1="12471.19" y1="12230.68" x2="14992.79" y2="12230.68">
   <stop offset="0" style="stop-opacity:1; stop-color:white"/>
   <stop offset="1" style="stop-opacity:0; stop-color:white"/>
  </linearGradient>
     <rect style="fill:url(#id23)" x="12298.9" y="11883.41" width="2944.32" height="1060.78"/>
    </mask>
    <mask id="id24">
  <linearGradient id="id25" gradientUnits="userSpaceOnUse" x1="16529.99" y1="11805.47" x2="16172.12" y2="10469.98">
   <stop offset="0" style="stop-opacity:1; stop-color:white"/>
   <stop offset="1" style="stop-opacity:0; stop-color:white"/>
  </linearGradient>
     <rect style="fill:url(#id25)" x="10437.86" y="9873.26" width="7023.22" height="3630"/>
    </mask>
 </defs>
 <g id="Layer_x0020_1">
  <metadata id="CorelCorpID_0Corel-Layer"/>
  <g id="_2230185586400">
   <polygon class="fil0" points="5487.13,15163.95 5487.13,11473.25 2982.44,11473.25 2982.44,9760.63 10098.55,9760.63 10098.55,11473.25 7593.85,11473.25 7593.85,15163.95 "/>
   <polygon class="fil1" points="5609.98,15041.1 7471.01,15041.1 7471.01,11350.4 9975.71,11350.4 9975.71,9883.46 3105.28,9883.46 3105.28,11350.4 5609.98,11350.4 "/>
   <g style="clip-path:url(#id0)">
    <g>
     <path id="1" class="fil2" style="mask:url(#id1)" d="M10098.55 10111.79l-2572.7 0c-390.9,0 -870.79,143.72 -1213.64,491.8 -263.08,267.07 -445.72,655.58 -445.72,1193.54l0 3366.81 -87.51 0 0 -3366.81c0,-563.73 193.01,-972.5 471.02,-1254.74 361.2,-366.69 865.49,-518.11 1275.85,-518.11l2572.7 0 0 87.51z"/>
     <path class="fil2" style="mask:url(#id3)" d="M10098.55 10498.58l-2546.88 0c-263.8,0 -621.37,94.1 -875.8,352.09 -185.58,188.19 -316.62,464.78 -316.62,857.65l0 3455.62 -87.51 0 0 -3455.62c0,-418.89 141.51,-715.62 341.93,-918.84 273.44,-277.27 656.1,-378.41 938,-378.41l2546.88 0 0 87.51z"/>
     <path class="fil2" style="mask:url(#id5)" d="M10098.55 10885.37l-2521.08 0c-134.66,0 -370.97,42.16 -536.99,210.02 -109.28,110.52 -188.48,276.89 -188.48,524.1l0 3544.45 -87.51 0 0 -3544.45c0,-273.86 89.83,-460.29 213.78,-585.64 186.55,-188.62 449.59,-235.99 599.2,-235.99l2521.08 0 0 87.51z"/>
     <path class="fil2" style="mask:url(#id7)" d="M10098.55 11272.15l-2497.85 0 -3.56 -0.51c-0.72,-0.1 -252.38,-37.98 -252.38,259.04l0 3633.26 -87.51 0 0 -3633.26c0,-373.84 309.18,-350.46 348.16,-346.04l2493.14 0 0 87.51z"/>
     <g>
      <path class="fil2" style="mask:url(#id9)" d="M3033.88 10024.7l2572.71 0c107.48,0 221.72,10.49 338.3,32.56 109.52,20.71 221.36,51.91 331.77,94.41l-15.95 41.72 -35.87 30.93c-98.07,-36.34 -197.67,-63.48 -295.87,-82.06 -110.58,-20.93 -219.49,-30.88 -322.38,-30.88l-2572.71 0 0 -86.68z"/>
      <path class="fil2" style="mask:url(#id11)" d="M3033.88 10411.48l2546.89 0c58.91,0 122.54,4.47 188.92,14.1 62.01,8.97 126.01,22.43 190.24,40.86l-12.34 43.41c-8.67,10.86 -18.4,23.12 -27.86,35.26 -55.2,-15.11 -109.69,-26.29 -162.22,-33.88 -61.52,-8.92 -121.1,-13.07 -176.74,-13.07l-2546.89 0 0 -86.68z"/>
      <path class="fil2" style="mask:url(#id13)" d="M3033.88 10798.28l2521.09 0c25.01,0 53.93,1.45 85.99,4.74 28.42,2.93 58.27,7.3 88.37,13.27l-6.49 33.19c-7.96,14.69 -17.15,31.87 -25.99,48.79 -22.92,-4.15 -44.59,-7.2 -64.69,-9.26 -27.39,-2.82 -53.51,-4.05 -77.19,-4.05l-2521.09 0 0 -86.68z"/>
      <path class="fil2" style="mask:url(#id15)" d="M3033.88 11185.06l2495.27 0c0,0 10.78,-1.4 25.7,-1.7l0.88 45.11c-4.62,13.24 -9.53,27.59 -14.22,41.91 -8.14,0.62 -12.34,1.35 -12.36,1.35l-2495.27 0 0 -86.67z"/>
     </g>
     <path class="fil0" style="mask:url(#id17)" d="M5487.14 11473.24l-2330 0 0 -1712.62 4434.8 0c-1794.12,0 -2104.8,1712.62 -2104.8,1712.62z"/>
    </g>
   </g>
   <polygon class="fil3" points="5609.98,15041.1 7471.01,15041.1 7471.01,11350.4 9975.71,11350.4 9975.71,9883.46 3105.28,9883.46 3105.28,11350.4 5609.98,11350.4 "/>
   <path class="fil0" d="M22214.71 11473.25l-2307.68 0 0 1978.08 2307.68 0c546.82,0 856.33,-446.26 856.33,-989.09 0,-546.72 -309.51,-988.99 -856.33,-988.99zm394.03 -1712.62c1483.54,-20.12 2585.13,1226.22 2572.99,2701.61 12.14,1467.53 -1089.45,2721.83 -2572.99,2701.71l-4808.43 0 0 -5403.32 4808.43 0z"/>
   <path class="fil1" d="M17923.16 9883.46l0 5157.64 4687.26 0c1429.44,19.41 2448.48,-1196.37 2448.48,-2578.87 0,-1386.3 -1015.4,-2598.23 -2450.16,-2578.77l-4685.58 0zm4291.56 1466.94c635.73,0 979.16,520.87 979.16,1111.83 0,589.27 -345.23,1111.93 -979.16,1111.93l-2430.52 0 0 -2223.76 2430.52 0z"/>
   <g style="clip-path:url(#id19)">
    <g>
     <path id="1" class="fil2" d="M17842.33 14814.31l4749.22 0.17c2.48,0.13 870.77,58.87 1602.11,-792.93 184.92,-215.37 312.14,-455.67 392.84,-704.3 154.91,-477.31 154.71,-1234.77 -0.59,-1711.81 -80.73,-248.04 -207.77,-487.65 -392.25,-702.52 -731.34,-851.81 -1599.63,-793.06 -1602.11,-792.94l-4392.42 0.17 0 3093.33 -86.67 -14.42 0 -3165.59 4476.73 0c50.17,-2.62 931.43,-37.22 1670.16,823.23 192.32,224.02 324.75,473.7 408.82,732.01 164.56,505.57 164.97,1258.63 0.59,1765.27 -84.05,258.95 -216.62,509.23 -409.41,733.78 -738.73,860.45 -1619.99,825.86 -1670.16,823.18l-4784.84 0.05c12.04,-27.81 24.69,-56.73 37.98,-86.68zm1665.89 -1523.3l0 -2167.32c425.03,0 2524.33,-58.92 2760.67,0.17 1505.83,25.97 1506.03,2650.78 0,2676.75l-3518.03 0.12c69.33,-33.56 138.66,-62.21 206.76,-86.63l3310.59 0c1385.81,-10.1 1396.94,-2484.82 0,-2503.91l-2673.31 0.17 0 2080.65 -86.68 0zm-465.25 13.02l0 -2547.07 3332.23 0c15.08,-0.03 975.26,-10.08 1302.36,1011.76 40.53,126.58 68.57,245.98 85.4,358.45 49.08,328.06 14.29,717.15 -85.4,1028.57 -327.1,1021.84 -1287.28,1011.79 -1302.36,1011.59l-4134.99 0.15c29.16,-30.39 59.06,-59.26 89.58,-86.63l4045.75 0.15c2.58,0 910.06,15.82 1219.76,-951.64 95.92,-299.59 129.23,-674.67 82.01,-989.66 -16.21,-108.44 -43.16,-223.27 -82.01,-344.59 -309.7,-967.47 -1217.18,-951.65 -1219.76,-951.65l-3245.89 0.17 0 2460.4 -86.68 0zm-465.27 -37.56l0 -2876.27 3904.49 0c35.92,-1 951.33,-21.67 1486.87,916.84 109.55,191.95 183.64,382.77 227.99,568.75 69.58,291.77 69.77,879 0.49,1170.89 -44.32,186.6 -118.54,378.11 -228.48,570.75 -535.54,938.5 -1450.95,917.84 -1486.87,916.71l-4508.57 0.12c16.07,-29.83 32.82,-58.67 50.1,-86.68l4459.65 0.18c2.56,0.04 891.09,37.27 1410.51,-872.98 105.49,-184.86 176.77,-368.8 219.34,-548.1 66.29,-279.26 65.4,-854.48 -0.49,-1130.89 -42.6,-178.71 -113.75,-361.94 -218.85,-546.1 -519.42,-910.25 -1407.95,-873.03 -1410.51,-872.98l-3818.99 0.17 0 2804.01 -86.68 -14.42z"/>
     <path class="fil2" d="M18199.13 12520.48l0 1688.35c-31.15,38.33 -60.04,77.19 -86.67,116.06l0 -1804.41 86.67 0zm378.57 0l86.68 0 0 1310.64c-29.31,14.96 -58.23,30.86 -86.68,47.61l0 -1358.25zm465.27 0l86.68 0 0 1141.27c-28.6,7.12 -57.51,14.79 -86.68,23.12l0 -1164.39zm465.25 0l86.68 0 0 1063.95c-26.73,2.41 -55.72,5.31 -86.68,8.94l0 -1072.89z"/>
     <path class="fil4" style="mask:url(#id20)" d="M17400.55 9552.97l2418.11 0 0 4020.16c-2005.54,28.7 -2018.34,1590.81 -2018.34,1590.81l2018.34 0 0 460.36 -2418.11 0 0 -6071.33z"/>
    </g>
   </g>
   <path class="fil3" d="M17923.16 9883.46l0 5157.64 4687.26 0c1429.44,19.41 2448.48,-1196.37 2448.48,-2578.87 0,-1386.3 -1015.4,-2598.23 -2450.16,-2578.77l-4685.58 0zm4291.56 1466.94c635.73,0 979.16,520.87 979.16,1111.83 0,589.27 -345.23,1111.93 -979.16,1111.93l-2430.52 0 0 -2223.76 2430.52 0z"/>
   <path class="fil0" d="M12431.74 11770.56l0 -723.67 2834.4 0c180.89,0 329.61,180.87 329.61,361.84 0,180.87 -148.72,361.83 -329.61,361.83l-2834.4 0zm0 2010.15l0 -723.68 2834.4 0c180.89,0 329.61,180.87 329.61,361.84 0,180.87 -148.72,361.84 -329.61,361.84l-2834.4 0zm-2106.65 -1154.63l0 2537.84 5536.02 0c928.77,0 1724.75,-636.05 1712.71,-1822.81 0,-486.57 -133.3,-886.05 -361.2,-1185.49 227.9,-238.41 361.23,-556.49 361.23,-943.91 12.04,-944.79 -784.04,-1451.29 -1712.72,-1451.29l-5536.11 0 0 2010.14 0 115.99 0 667.96 0.07 0 0 71.57z"/>
   <path class="fil1" d="M10447.93 15041.08l5413.18 0c314.81,0 627.34,-78.18 893.56,-249.22 500.97,-321.85 700.47,-873.3 696.31,-1449.87 -2.82,-394.27 -93.72,-793.5 -336.11,-1111.98l-63.51 -83.45 72.47 -75.82c225.74,-236.18 324.25,-536.32 327.18,-860.13 8.18,-904.09 -771.22,-1327.35 -1589.88,-1327.35l-5413.27 0 0.07 5157.82zm1860.97 -1137.53l0 -969.36 2957.24 0c253.2,0 452.45,240.27 452.45,484.68 0,244.38 -199.3,484.68 -452.45,484.68l-2957.24 0zm0 -2010.14l0 -969.37 2957.24 0c253.2,0 452.45,240.28 452.45,484.69 0,244.37 -199.3,484.68 -452.45,484.68l-2957.24 0z"/>
   <path class="fil2" d="M12119.58 11504.32l0 2498.41c329.53,1.15 661.34,4.64 993.68,8.13 595.46,6.24 1192.81,12.51 1779.59,5.38 230.82,-2.8 466.82,-20.69 635.31,-110.48 326.88,-174.19 326.58,-745.03 0,-919.05 -168.49,-89.79 -404.49,-107.68 -635.31,-110.48 -586.78,-7.13 -1184.13,-0.86 -1779.59,5.38 -203.6,2.14 -598.78,4.27 -801.59,5.87l0 -86.31c202.44,-1.59 597.45,-3.76 800.9,-5.89 595.92,-6.27 1193.72,-12.53 1781.31,-5.38 241.9,2.92 490.53,22.4 674.91,120.65 388.08,206.77 387.91,864.65 0,1071.37 -184.38,98.25 -433.01,117.73 -674.91,120.65 -587.59,7.15 -1185.39,0.89 -1781.31,-5.38 -347.02,-3.66 -693.48,-7.32 -1036.33,-8.28l-43.34 -0.14 0 -2628.13 0.02 0 0 -709.75 3320.26 0c131,0 321.31,48.52 457.49,185.54 97.93,98.52 167.8,241.65 167.8,443.28 0,254.62 -130.39,403.43 -255.31,487.58 -81.08,-1.74 -149.18,0.39 -200.01,3.32 105.17,-35.01 368.64,-156.13 368.64,-490.9 0,-175.66 -59.31,-298.77 -142.4,-382.35 -117.26,-118 -282.33,-159.8 -396.21,-159.8l-3233.58 0 0 666.76 -0.02 0zm3439.88 444.93c99.47,4.37 197.77,13.14 294.03,26.68l0.61 0.07 3.98 0.57 0.05 -0.03c65.89,8.73 149.25,25.55 149.25,25.55 80.17,16.12 158.64,35.8 234.65,59.46l0.2 0.05 3.17 1.03 0.61 0.17 4.01 1.26 1.72 0.54 0.15 0.05 18.05 5.79 0.3 -0.17c58.77,18.5 104.07,37.32 104.07,37.32 0,0 147.31,64.44 212.37,98.1l0.19 0.12 0.42 0.23c10.88,5.94 21.67,11.98 32.38,18.15l-0.42 -0.54c51.35,29.73 105.11,66.31 116.8,74.39l0.15 0.13 0.66 0.46 0.12 0.08 0.42 0.29 0.42 0.3 0.1 0.04 0.22 0.18 0.17 0.12 0.07 0.05 0.03 0 16.26 11.57c790.02,570.37 788.47,1700.68 0,2269.95 -358.22,258.63 -838.61,364.17 -1339.25,365.28 -1021.94,2.23 -2044,0.2 -3065.96,-1.82 -556.3,-1.08 -1112.67,-2.23 -1668.96,-2.63l-43.34 -0.05 0 -3442.44 0 -38.91 0 -1488.71 5238.32 0c421.83,0 757.19,134.27 994.1,341.82 266.64,233.57 408.15,559.59 408.15,891.92 0,431.96 -199.89,715.84 -324.91,851.16 -21.5,23.27 -67.47,62.26 -116.26,101.71 -24.86,-16.9 -50.81,-32.99 -77.81,-48.3 55.11,-43.83 110.34,-89.62 132.92,-114.12 114.88,-124.53 299.38,-387.31 299.38,-790.45 0,-308.13 -131.19,-610.4 -378.37,-826.92 -221.9,-194.38 -537.82,-320.14 -937.2,-320.14l-5151.65 0 0 1402.03 0 38.91 0 3356.18c541.85,0.42 1083.78,1.55 1625.63,2.61 1021.96,2.01 2044.02,4.05 3065.96,1.82 483.86,-1.08 946.53,-101.91 1288.79,-349.02 736.09,-531.46 737.04,-1597.67 0,-2129.81 -342.26,-247.11 -804.93,-347.94 -1288.79,-349.02 -970.62,-2.11 -2133.11,-0.41 -3103.75,1.5l0 -86.33c943.76,-1.87 2068.76,-3.56 3022.52,-1.7l2.85 0 3.02 0.03 0.69 0c64.08,0.29 218.71,3.44 218.71,3.44zm466.45 -58.82c120.01,-80.38 298.97,-253.15 298.97,-568.73 0,-225.11 -86.24,-403.23 -219.79,-528.23 -150.43,-140.8 -361.35,-215.57 -577.82,-215.57l-3872.92 0 0 926.2 -0.05 0 0 2782.96c406.39,0.88 814.46,3.61 1222.78,6.31 731.52,4.81 1464.34,9.68 2190.11,4.18 302.9,-2.22 603.17,-42.83 826.74,-172.47 491.21,-284.75 492.05,-1072.45 0,-1357.69 -223.57,-129.64 -523.84,-170.25 -826.74,-172.47 -725.77,-5.5 -1458.59,-0.63 -2190.11,4.18l-565.41 2.43 0 -86.33 565.07 -2.43c731.71,-4.84 1464.7,-9.71 2190.79,-4.18 316.14,2.29 631.13,45.62 869.74,183.97 549.66,318.7 548.24,1189.49 0,1507.35 -238.61,138.35 -553.6,181.68 -869.74,183.97 -726.09,5.53 -1459.08,0.66 -2190.79,-4.18 -422.92,-2.82 -845.54,-5.65 -1265.77,-6.41l-43.34 -0.1 0 -2912.55 0.05 0 0 -969.41 3959.59 0c237.43,0 469.77,82.96 636.74,239.24 150.43,140.8 247.54,340.3 247.54,591.23 0,296.08 -141.14,480.98 -267.1,587.09 -40.49,-7.2 -80.09,-13.27 -118.54,-18.36zm393.53 83.31c110.71,-84.95 338.53,-308.55 338.53,-710.07 0,-268.48 -110.09,-507.16 -299.27,-677.22 -185.49,-166.74 -447.53,-268.18 -757.31,-268.18l-4512.31 0 0 1142.37 0.03 0 0 3110.74c480.11,0.69 960.95,2.58 1441.92,4.47 870.8,3.42 1742.33,6.86 2610.22,3 411,-1.74 809.55,-77.76 1095.47,-285.55 560.87,-407.61 561.33,-1286.17 0,-1694.13 -285.92,-207.79 -684.47,-283.81 -1095.47,-285.55 -867.89,-3.86 -1739.42,-0.42 -2610.22,3l-319.36 0.51 0 -86.35 319.02 -0.5c870.97,-3.44 1742.69,-6.88 2610.91,-2.99 427.43,1.81 843.67,82.15 1145.93,301.82 609.68,443.13 609.16,1391.49 0,1834.25 -302.26,219.67 -718.5,300.01 -1145.93,301.82 -868.22,3.89 -1739.94,0.45 -2610.91,-2.99 -495.51,-1.97 -990.88,-3.93 -1484.92,-4.52l-43.34 -0.08 0 -3153.32 -0.02 0 0 -1272.68 4598.98 0c332.06,0 614.23,109.89 815.19,290.54 207.41,186.45 328.06,447.78 328.06,741.54 0,388.4 -196.94,626.3 -327.66,741.42 -32.68,-11.32 -65.23,-21.72 -97.54,-31.35z"/>
   <polygon class="fil4" style="mask:url(#id22)" points="12308.9,11893.41 12308.9,12934.19 15233.22,12934.19 15233.22,11921.12 15232.28,11920.77 15231.55,11920.48 15221.7,11916.67 15220.1,11916.03 15219.71,11915.89 15218.53,11915.39 15216.95,11914.76 15216.71,11914.68 15215.41,11914.14 15213.88,11913.53 15213.74,11913.48 15203.64,11909.25 15202.56,11908.81 15202.24,11908.66 15200.89,11908.1 15199.93,11907.7 15199.53,11907.51 15198.21,11906.94 15197.4,11906.6 15196.91,11906.38 15195.63,11905.81 15194.94,11905.54 15194.38,11905.27 15193.12,11904.73 15192.56,11904.49 15191.92,11904.22 15190.74,11903.67 15190.27,11903.48 15189.58,11903.16 15188.43,11902.67 15188.09,11902.52 15187.32,11902.18 15186.24,11901.68 15186,11901.59 15185.19,11901.22 15184.16,11900.75 15184.01,11900.68 15183.15,11900.28 15182.19,11899.84 15182.12,11899.82 15181.23,11899.42 15180.32,11899.01 15179.44,11898.59 15178.65,11898.22 15178.58,11898.2 15177.77,11897.83 15177.08,11897.51 15176.98,11897.46 15176.22,11897.09 15175.65,11896.85 15175.48,11896.75 15174.79,11896.43 15174.33,11896.21 15174.13,11896.13 15173.49,11895.81 15173.12,11895.64 15172.9,11895.54 15172.34,11895.27 15172.04,11895.15 15171.82,11895.03 15171.33,11894.81 15171.11,11894.71 15170.86,11894.58 15170.45,11894.39 15170.3,11894.31 15170.08,11894.19 15169.73,11894.04 15169.64,11894 15169.44,11893.9 15169.17,11893.77 15169.12,11893.75 15168.95,11893.65 15168.78,11893.58 15168.75,11893.55 15168.63,11893.5 15168.51,11893.45 15168.43,11893.41 "/>
   <path class="fil4" style="mask:url(#id24)" d="M17447.27 13493.26c2.85,-50.15 4.08,-100.61 3.71,-151.27 -2.82,-394.27 -93.72,-793.5 -336.11,-1111.98l-63.51 -83.45 72.47 -75.82c225.74,-236.18 324.25,-536.32 327.18,-860.13 8.18,-904.09 -771.22,-1327.35 -1589.88,-1327.35l-5413.27 0 0 158.47 1585.06 1064.02 275.98 60.39 0 -242.1 2957.24 0c253.2,0 452.45,240.28 452.45,484.69 0,226.22 -170.8,448.95 -397.03,480.77l0.08 0.02c0,0 2122.56,-307.64 2125.63,1603.74z"/>
   <path class="fil1" d="M17318.17 15896.71l7469.79 0 393.77 568.83 -7473.18 0 -390.38 -568.83zm-7259.73 568.83l-6255.66 0 -393.77 -568.83 6259.05 0 390.38 568.83z"/>
   <polygon class="fil1" points="17035.66,15896.71 17429.43,16465.54 10340.96,16465.54 9947.19,15896.71 "/>
  </g>
 </g>
</svg>